<svg width="448" height="448" xmlns="http://www.w3.org/2000/svg"><g transform="translate(16 16)" fill="none" fill-rule="evenodd"><rect stroke="#525E68" stroke-width="32" stroke-linejoin="round" y="32" width="416" height="384" rx="48"/><path d="M349.82 32H66.18C29.69 32 0 62.15 0 99.2V160h16c0-16 16-32 32-32h320c16 0 32 16 32 32h16V99.2c0-37.05-29.69-67.2-66.18-67.2z" fill="#525E68" fill-rule="nonzero"/><circle fill="#525E68" fill-rule="nonzero" cx="248" cy="184" r="24"/><circle fill="#525E68" fill-rule="nonzero" cx="328" cy="184" r="24"/><circle fill="#525E68" fill-rule="nonzero" cx="248" cy="264" r="24"/><circle fill="#525E68" fill-rule="nonzero" cx="328" cy="264" r="24"/><circle fill="#525E68" fill-rule="nonzero" cx="88" cy="264" r="24"/><circle fill="#525E68" fill-rule="nonzero" cx="168" cy="264" r="24"/><circle fill="#525E68" fill-rule="nonzero" cx="88" cy="344" r="24"/><circle fill="#525E68" fill-rule="nonzero" cx="168" cy="344" r="24"/><circle fill="#525E68" fill-rule="nonzero" cx="248" cy="344" r="24"/><path stroke="#525E68" stroke-width="32" stroke-linecap="round" stroke-linejoin="round" d="M80 0v32M336 0v32"/></g></svg>