<?xml version="1.0" encoding="UTF-8"?>
<svg width="448px" height="176px" viewBox="0 0 448 176" version="1.1" xmlns="http://www.w3.org/2000/svg" xmlns:xlink="http://www.w3.org/1999/xlink">
    <!-- Generator: Sketch 63.1 (92452) - https://sketch.com -->
    <title>glasses-outline</title>
    <desc>Created with Sketch.</desc>
    <g id="Page-1" stroke="none" stroke-width="1" fill="none" fill-rule="evenodd" stroke-linecap="round" stroke-linejoin="round">
        <g id="glasses-outline" transform="translate(16.000000, 16.000000)" stroke="#525E68" stroke-width="32">
            <path d="M176,48 C176,30.326888 190.326888,16 208,16 C225.673112,16 240,30.326888 240,48" id="Path"></path>
            <line x1="400" y1="16" x2="416" y2="16" id="Path"></line>
            <line x1="16" y1="16" x2="0" y2="16" id="Path"></line>
            <path d="M16,16 C16,112 32,144 96,144 C160,144 176,112 176,16 C176,16 160,0 96,0 C32,0 16,16 16,16 Z" id="Path"></path>
            <path d="M400,16 C400,112 384,144 320,144 C256,144 240,112 240,16 C240,16 256,0 320,0 C384,0 400,16 400,16 Z" id="Path"></path>
        </g>
    </g>
</svg>