<svg width="480" height="352" xmlns="http://www.w3.org/2000/svg"><g stroke="#525E68" stroke-width="32" fill="none" fill-rule="evenodd"><path d="M386 88c-2.93 40.67-33.1 72-66 72s-63.12-31.32-66-72c-3-42.31 26.37-72 66-72 39.63 0 69 30.46 66 72z" stroke-linecap="round" stroke-linejoin="round"/><path d="M320 224c-65.17 0-127.84 32.37-143.54 95.41-2.08 8.34 3.15 16.59 11.72 16.59h263.65c8.57 0 13.77-8.25 11.72-16.59C447.85 255.36 385.18 224 320 224z"/><path d="M184 105.94c-2.34 32.48-26.72 58.06-53 58.06s-50.7-25.57-53-58.06C75.61 72.15 99.34 48 131 48s55.39 24.77 53 57.94z" stroke-linecap="round" stroke-linejoin="round"/><path d="M190 226c-18.05-8.27-37.93-11.45-59-11.45-52 0-102.1 25.85-114.65 76.2-1.65 6.66 2.53 13.25 9.37 13.25H138" stroke-linecap="round"/></g></svg>