<?xml version="1.0" encoding="UTF-8"?>
<svg width="480px" height="448px" viewBox="0 0 480 448" version="1.1" xmlns="http://www.w3.org/2000/svg" xmlns:xlink="http://www.w3.org/1999/xlink">
    <!-- Generator: Sketch 63.1 (92452) - https://sketch.com -->
    <title>home-outline</title>
    <desc>Created with Sketch.</desc>
    <g id="Page-1" stroke="none" stroke-width="1" fill="none" fill-rule="evenodd" stroke-linecap="round" stroke-linejoin="round">
        <g id="home-outline" transform="translate(16.000000, 16.000000)" stroke="#525E68" stroke-width="32">
            <path d="M48,164 L48,400 C48,408.836556 55.163444,416 64,416 L160,416 L160,280 C160,266.745166 170.745166,256 184,256 L264,256 C277.254834,256 288,266.745166 288,280 L288,416 L384,416 C392.836556,416 400,408.836556 400,400 L400,164" id="Path"></path>
            <path d="M448,208 L234.89,4 C229.89,-1.28 218.2,-1.34 213.11,4 L0,208" id="Path"></path>
            <polyline id="Path" points="368 131 368 16 320 16 320 85"></polyline>
        </g>
    </g>
</svg>