<svg xmlns="http://www.w3.org/2000/svg" viewBox="0 0 190.76 222.77"><title>avengers-logo</title><path d="M91.26,43.59c-42.34,2.18-76,37.58-76,80.93a81.33,81.33,0,0,0,10.54,40.2l-8.12,15.76A96.76,96.76,0,0,1,0,124.52C0,71.25,42.7,28.05,95.38,28.05c.75,0,1.51,0,2.25,0L111.41,0h29.44V39.7a96.6,96.6,0,0,1,49.91,84.82c0,53.28-42.7,96.48-95.38,96.48a94.19,94.19,0,0,1-44.52-11.13L57.57,196a79.07,79.07,0,0,0,37.81,9.57c44.25,0,80.12-36.28,80.12-81a81.2,81.2,0,0,0-35.32-67.19V134l-26.9-25.44V50.45L80.06,129.34h33.22V116.68L144.42,146l-32.18,24.71V157.58H68.44L39.58,222.77l-35.71-.7Z" style="fill:#868e95"/></svg>