<svg xmlns="http://www.w3.org/2000/svg" viewBox="0 0 190.76 222.77"><path d="M91.26 43.59c-42.34 2.18-76 37.58-76 80.93a81.33 81.33 0 0010.54 40.2l-8.12 15.76A96.76 96.76 0 010 124.52c0-53.27 42.7-96.47 95.38-96.47h2.25L111.41 0h29.44v39.7a96.6 96.6 0 0149.91 84.82c0 53.28-42.7 96.48-95.38 96.48a94.19 94.19 0 01-44.52-11.13L57.57 196a79.07 79.07 0 0037.81 9.57c44.25 0 80.12-36.28 80.12-81a81.2 81.2 0 00-35.32-67.19V134l-26.9-25.44V50.45l-33.22 78.89h33.22v-12.66L144.42 146l-32.18 24.71v-13.13h-43.8l-28.86 65.19-35.71-.7z" fill="#868e95"/></svg>